<mxfile host="app.diagrams.net" modified="2021-05-11T07:04:49.601Z" agent="5.0 (Windows NT 10.0; Win64; x64) AppleWebKit/537.36 (KHTML, like Gecko) Chrome/90.0.4430.93 Safari/537.36" etag="qI_s9D6bNdz4C8l_zXuO" version="14.6.11" type="github">
  <diagram id="C5RBs43oDa-KdzZeNtuy" name="Page-1">
    <mxGraphModel dx="1422" dy="706" grid="1" gridSize="10" guides="1" tooltips="1" connect="1" arrows="1" fold="1" page="1" pageScale="1" pageWidth="827" pageHeight="1169" math="0" shadow="0">
      <root>
        <mxCell id="WIyWlLk6GJQsqaUBKTNV-0" />
        <mxCell id="WIyWlLk6GJQsqaUBKTNV-1" parent="WIyWlLk6GJQsqaUBKTNV-0" />
        <mxCell id="WtwW4LXko44g83o5SJI--17" style="edgeStyle=orthogonalEdgeStyle;rounded=0;orthogonalLoop=1;jettySize=auto;html=1;entryX=0.5;entryY=0;entryDx=0;entryDy=0;" edge="1" parent="WIyWlLk6GJQsqaUBKTNV-1" source="WtwW4LXko44g83o5SJI--1" target="WtwW4LXko44g83o5SJI--3">
          <mxGeometry relative="1" as="geometry" />
        </mxCell>
        <mxCell id="WtwW4LXko44g83o5SJI--18" style="edgeStyle=orthogonalEdgeStyle;rounded=0;orthogonalLoop=1;jettySize=auto;html=1;entryX=0.469;entryY=0.143;entryDx=0;entryDy=0;entryPerimeter=0;" edge="1" parent="WIyWlLk6GJQsqaUBKTNV-1" source="WtwW4LXko44g83o5SJI--1" target="WtwW4LXko44g83o5SJI--10">
          <mxGeometry relative="1" as="geometry" />
        </mxCell>
        <mxCell id="WtwW4LXko44g83o5SJI--19" style="edgeStyle=orthogonalEdgeStyle;rounded=0;orthogonalLoop=1;jettySize=auto;html=1;entryX=0.5;entryY=0;entryDx=0;entryDy=0;" edge="1" parent="WIyWlLk6GJQsqaUBKTNV-1" source="WtwW4LXko44g83o5SJI--1" target="WtwW4LXko44g83o5SJI--8">
          <mxGeometry relative="1" as="geometry" />
        </mxCell>
        <mxCell id="WtwW4LXko44g83o5SJI--1" value="客户端" style="rounded=0;whiteSpace=wrap;html=1;" vertex="1" parent="WIyWlLk6GJQsqaUBKTNV-1">
          <mxGeometry x="200" y="110" width="470" height="60" as="geometry" />
        </mxCell>
        <mxCell id="WtwW4LXko44g83o5SJI--16" value="" style="edgeStyle=orthogonalEdgeStyle;rounded=0;orthogonalLoop=1;jettySize=auto;html=1;" edge="1" parent="WIyWlLk6GJQsqaUBKTNV-1" source="WtwW4LXko44g83o5SJI--3" target="WtwW4LXko44g83o5SJI--6">
          <mxGeometry relative="1" as="geometry" />
        </mxCell>
        <mxCell id="WtwW4LXko44g83o5SJI--3" value="metrices" style="rounded=0;whiteSpace=wrap;html=1;" vertex="1" parent="WIyWlLk6GJQsqaUBKTNV-1">
          <mxGeometry x="200" y="230" width="110" height="90" as="geometry" />
        </mxCell>
        <mxCell id="WtwW4LXko44g83o5SJI--4" value="" style="swimlane;startSize=0;" vertex="1" parent="WIyWlLk6GJQsqaUBKTNV-1">
          <mxGeometry x="340" y="230" width="330" height="200" as="geometry" />
        </mxCell>
        <mxCell id="WtwW4LXko44g83o5SJI--7" value="engine" style="text;html=1;align=center;verticalAlign=middle;resizable=0;points=[];autosize=1;strokeColor=none;" vertex="1" parent="WtwW4LXko44g83o5SJI--4">
          <mxGeometry x="20" y="10" width="50" height="20" as="geometry" />
        </mxCell>
        <mxCell id="WtwW4LXko44g83o5SJI--21" style="edgeStyle=orthogonalEdgeStyle;rounded=0;orthogonalLoop=1;jettySize=auto;html=1;entryX=0.5;entryY=0;entryDx=0;entryDy=0;" edge="1" parent="WtwW4LXko44g83o5SJI--4" source="WtwW4LXko44g83o5SJI--8" target="WtwW4LXko44g83o5SJI--9">
          <mxGeometry relative="1" as="geometry" />
        </mxCell>
        <mxCell id="WtwW4LXko44g83o5SJI--8" value="option" style="rounded=0;whiteSpace=wrap;html=1;" vertex="1" parent="WtwW4LXko44g83o5SJI--4">
          <mxGeometry x="200" y="40" width="120" height="70" as="geometry" />
        </mxCell>
        <mxCell id="WtwW4LXko44g83o5SJI--9" value="configuration" style="rounded=0;whiteSpace=wrap;html=1;" vertex="1" parent="WtwW4LXko44g83o5SJI--4">
          <mxGeometry x="200" y="130" width="120" height="60" as="geometry" />
        </mxCell>
        <mxCell id="WtwW4LXko44g83o5SJI--20" style="edgeStyle=orthogonalEdgeStyle;rounded=0;orthogonalLoop=1;jettySize=auto;html=1;entryX=0.5;entryY=0;entryDx=0;entryDy=0;" edge="1" parent="WtwW4LXko44g83o5SJI--4" source="WtwW4LXko44g83o5SJI--10" target="WtwW4LXko44g83o5SJI--11">
          <mxGeometry relative="1" as="geometry" />
        </mxCell>
        <mxCell id="WtwW4LXko44g83o5SJI--10" value="&lt;span style=&quot;color: rgb(51 , 51 , 51) ; font-family: &amp;#34;open sans&amp;#34; , &amp;#34;clear sans&amp;#34; , &amp;#34;helvetica neue&amp;#34; , &amp;#34;helvetica&amp;#34; , &amp;#34;arial&amp;#34; , sans-serif ; font-size: 16px ; text-align: left ; background-color: rgb(255 , 255 , 255)&quot;&gt;MachineCapablity&lt;/span&gt;" style="rounded=0;whiteSpace=wrap;html=1;" vertex="1" parent="WtwW4LXko44g83o5SJI--4">
          <mxGeometry x="20" y="40" width="160" height="70" as="geometry" />
        </mxCell>
        <mxCell id="WtwW4LXko44g83o5SJI--11" value="MahineInfo" style="rounded=0;whiteSpace=wrap;html=1;" vertex="1" parent="WtwW4LXko44g83o5SJI--4">
          <mxGeometry x="20" y="130" width="160" height="60" as="geometry" />
        </mxCell>
        <mxCell id="WtwW4LXko44g83o5SJI--24" style="edgeStyle=orthogonalEdgeStyle;rounded=0;orthogonalLoop=1;jettySize=auto;html=1;entryX=0.5;entryY=0;entryDx=0;entryDy=0;" edge="1" parent="WIyWlLk6GJQsqaUBKTNV-1" source="WtwW4LXko44g83o5SJI--6" target="WtwW4LXko44g83o5SJI--14">
          <mxGeometry relative="1" as="geometry" />
        </mxCell>
        <mxCell id="WtwW4LXko44g83o5SJI--6" value="machineInfoI" style="rounded=0;whiteSpace=wrap;html=1;" vertex="1" parent="WIyWlLk6GJQsqaUBKTNV-1">
          <mxGeometry x="200" y="360" width="110" height="80" as="geometry" />
        </mxCell>
        <mxCell id="WtwW4LXko44g83o5SJI--12" value="" style="swimlane;startSize=0;" vertex="1" parent="WIyWlLk6GJQsqaUBKTNV-1">
          <mxGeometry x="205" y="485" width="465" height="105" as="geometry" />
        </mxCell>
        <mxCell id="WtwW4LXko44g83o5SJI--13" value="HardWareCodec" style="rounded=0;whiteSpace=wrap;html=1;" vertex="1" parent="WtwW4LXko44g83o5SJI--12">
          <mxGeometry x="320" y="20" width="125" height="60" as="geometry" />
        </mxCell>
        <mxCell id="WtwW4LXko44g83o5SJI--14" value="PlarformProperty" style="rounded=0;whiteSpace=wrap;html=1;" vertex="1" parent="WtwW4LXko44g83o5SJI--12">
          <mxGeometry x="25" y="20" width="125" height="60" as="geometry" />
        </mxCell>
        <mxCell id="WtwW4LXko44g83o5SJI--15" value="HardInfo" style="rounded=0;whiteSpace=wrap;html=1;" vertex="1" parent="WtwW4LXko44g83o5SJI--12">
          <mxGeometry x="175" y="20" width="120" height="60" as="geometry" />
        </mxCell>
        <mxCell id="WtwW4LXko44g83o5SJI--22" style="edgeStyle=orthogonalEdgeStyle;rounded=0;orthogonalLoop=1;jettySize=auto;html=1;" edge="1" parent="WIyWlLk6GJQsqaUBKTNV-1" source="WtwW4LXko44g83o5SJI--11" target="WtwW4LXko44g83o5SJI--15">
          <mxGeometry relative="1" as="geometry" />
        </mxCell>
        <mxCell id="WtwW4LXko44g83o5SJI--23" style="edgeStyle=orthogonalEdgeStyle;rounded=0;orthogonalLoop=1;jettySize=auto;html=1;entryX=0.6;entryY=0.033;entryDx=0;entryDy=0;entryPerimeter=0;" edge="1" parent="WIyWlLk6GJQsqaUBKTNV-1" source="WtwW4LXko44g83o5SJI--9" target="WtwW4LXko44g83o5SJI--13">
          <mxGeometry relative="1" as="geometry" />
        </mxCell>
        <mxCell id="WtwW4LXko44g83o5SJI--25" style="edgeStyle=orthogonalEdgeStyle;rounded=0;orthogonalLoop=1;jettySize=auto;html=1;entryX=0.5;entryY=0;entryDx=0;entryDy=0;" edge="1" parent="WIyWlLk6GJQsqaUBKTNV-1" source="WtwW4LXko44g83o5SJI--11" target="WtwW4LXko44g83o5SJI--14">
          <mxGeometry relative="1" as="geometry">
            <Array as="points">
              <mxPoint x="440" y="470" />
              <mxPoint x="293" y="470" />
            </Array>
          </mxGeometry>
        </mxCell>
      </root>
    </mxGraphModel>
  </diagram>
</mxfile>
